<svg width="115" height="46" viewBox="0 0 115 46" fill="none" xmlns="http://www.w3.org/2000/svg">
<rect y="0.102539" width="114.959" height="45.8975" rx="12" fill="#E05F32"/>
<path d="M56.8265 29.4977C56.5785 29.4977 56.3865 29.4297 56.2505 29.2937C56.1225 29.1497 56.0585 28.9537 56.0585 28.7057V21.6377C56.0585 21.3817 56.1225 21.1857 56.2505 21.0497C56.3865 20.9137 56.5785 20.8457 56.8265 20.8457C57.0745 20.8457 57.2625 20.9137 57.3905 21.0497C57.5265 21.1857 57.5945 21.3817 57.5945 21.6377V24.4697H61.9505V21.6377C61.9505 21.3817 62.0145 21.1857 62.1425 21.0497C62.2785 20.9137 62.4705 20.8457 62.7185 20.8457C62.9665 20.8457 63.1545 20.9137 63.2825 21.0497C63.4185 21.1857 63.4865 21.3817 63.4865 21.6377V28.7057C63.4865 28.9537 63.4185 29.1497 63.2825 29.2937C63.1545 29.4297 62.9665 29.4977 62.7185 29.4977C62.4705 29.4977 62.2785 29.4297 62.1425 29.2937C62.0145 29.1497 61.9505 28.9537 61.9505 28.7057V25.7537H57.5945V28.7057C57.5945 28.9537 57.5305 29.1497 57.4025 29.2937C57.2745 29.4297 57.0825 29.4977 56.8265 29.4977ZM67.8117 29.5217C67.2037 29.5217 66.6757 29.3977 66.2277 29.1497C65.7797 28.9017 65.4317 28.5497 65.1837 28.0937C64.9357 27.6297 64.8117 27.0857 64.8117 26.4617C64.8117 25.9897 64.8797 25.5697 65.0157 25.2017C65.1597 24.8257 65.3637 24.5057 65.6277 24.2417C65.8917 23.9697 66.2077 23.7657 66.5757 23.6297C66.9437 23.4857 67.3557 23.4137 67.8117 23.4137C68.4197 23.4137 68.9477 23.5377 69.3957 23.7857C69.8437 24.0337 70.1917 24.3857 70.4397 24.8417C70.6877 25.2977 70.8117 25.8377 70.8117 26.4617C70.8117 26.9337 70.7397 27.3577 70.5957 27.7337C70.4597 28.1097 70.2597 28.4337 69.9957 28.7057C69.7317 28.9697 69.4157 29.1737 69.0477 29.3177C68.6797 29.4537 68.2677 29.5217 67.8117 29.5217ZM67.8117 28.3817C68.1077 28.3817 68.3677 28.3097 68.5917 28.1657C68.8157 28.0217 68.9877 27.8097 69.1077 27.5297C69.2357 27.2417 69.2997 26.8857 69.2997 26.4617C69.2997 25.8217 69.1637 25.3457 68.8917 25.0337C68.6197 24.7137 68.2597 24.5537 67.8117 24.5537C67.5157 24.5537 67.2557 24.6257 67.0317 24.7697C66.8077 24.9057 66.6317 25.1177 66.5037 25.4057C66.3837 25.6857 66.3237 26.0377 66.3237 26.4617C66.3237 27.0937 66.4597 27.5737 66.7317 27.9017C67.0037 28.2217 67.3637 28.3817 67.8117 28.3817ZM72.7578 29.4977C72.5178 29.4977 72.3338 29.4337 72.2058 29.3057C72.0778 29.1697 72.0138 28.9777 72.0138 28.7297V24.1937C72.0138 23.9457 72.0778 23.7577 72.2058 23.6297C72.3338 23.5017 72.5138 23.4377 72.7458 23.4377C72.9778 23.4377 73.1578 23.5017 73.2858 23.6297C73.4138 23.7577 73.4778 23.9457 73.4778 24.1937V25.0697L73.3458 24.7097C73.5058 24.3097 73.7538 23.9937 74.0898 23.7617C74.4258 23.5297 74.8258 23.4137 75.2898 23.4137C75.7618 23.4137 76.1498 23.5257 76.4538 23.7497C76.7578 23.9737 76.9698 24.3177 77.0898 24.7817H76.9218C77.0818 24.3577 77.3458 24.0257 77.7138 23.7857C78.0818 23.5377 78.5058 23.4137 78.9858 23.4137C79.4338 23.4137 79.8018 23.5017 80.0898 23.6777C80.3858 23.8537 80.6058 24.1217 80.7498 24.4817C80.8938 24.8337 80.9658 25.2817 80.9658 25.8257V28.7297C80.9658 28.9777 80.8978 29.1697 80.7618 29.3057C80.6338 29.4337 80.4498 29.4977 80.2098 29.4977C79.9698 29.4977 79.7858 29.4337 79.6578 29.3057C79.5298 29.1697 79.4658 28.9777 79.4658 28.7297V25.8857C79.4658 25.4377 79.3898 25.1097 79.2378 24.9017C79.0938 24.6937 78.8458 24.5897 78.4938 24.5897C78.1018 24.5897 77.7938 24.7297 77.5698 25.0097C77.3458 25.2817 77.2338 25.6617 77.2338 26.1497V28.7297C77.2338 28.9777 77.1698 29.1697 77.0418 29.3057C76.9138 29.4337 76.7298 29.4977 76.4898 29.4977C76.2498 29.4977 76.0618 29.4337 75.9258 29.3057C75.7978 29.1697 75.7338 28.9777 75.7338 28.7297V25.8857C75.7338 25.4377 75.6578 25.1097 75.5058 24.9017C75.3618 24.6937 75.1178 24.5897 74.7738 24.5897C74.3818 24.5897 74.0738 24.7297 73.8498 25.0097C73.6258 25.2817 73.5138 25.6617 73.5138 26.1497V28.7297C73.5138 29.2417 73.2618 29.4977 72.7578 29.4977ZM85.3452 29.5217C84.6812 29.5217 84.1092 29.3977 83.6292 29.1497C83.1492 28.9017 82.7772 28.5497 82.5132 28.0937C82.2572 27.6377 82.1292 27.0977 82.1292 26.4737C82.1292 25.8657 82.2532 25.3337 82.5012 24.8777C82.7572 24.4217 83.1052 24.0657 83.5452 23.8097C83.9932 23.5457 84.5012 23.4137 85.0692 23.4137C85.4852 23.4137 85.8572 23.4817 86.1852 23.6177C86.5212 23.7537 86.8052 23.9497 87.0372 24.2057C87.2772 24.4617 87.4572 24.7737 87.5772 25.1417C87.7052 25.5017 87.7692 25.9097 87.7692 26.3657C87.7692 26.5097 87.7172 26.6217 87.6132 26.7017C87.5172 26.7737 87.3772 26.8097 87.1932 26.8097H83.3412V25.9457H86.7132L86.5212 26.1257C86.5212 25.7577 86.4652 25.4497 86.3532 25.2017C86.2492 24.9537 86.0932 24.7657 85.8852 24.6377C85.6852 24.5017 85.4332 24.4337 85.1292 24.4337C84.7932 24.4337 84.5052 24.5137 84.2652 24.6737C84.0332 24.8257 83.8532 25.0457 83.7252 25.3337C83.6052 25.6137 83.5452 25.9497 83.5452 26.3417V26.4257C83.5452 27.0817 83.6972 27.5737 84.0012 27.9017C84.3132 28.2217 84.7692 28.3817 85.3692 28.3817C85.5772 28.3817 85.8092 28.3577 86.0652 28.3097C86.3292 28.2537 86.5772 28.1617 86.8092 28.0337C86.9772 27.9377 87.1252 27.8977 87.2532 27.9137C87.3812 27.9217 87.4812 27.9657 87.5532 28.0457C87.6332 28.1257 87.6812 28.2257 87.6972 28.3457C87.7132 28.4577 87.6892 28.5737 87.6252 28.6937C87.5692 28.8137 87.4692 28.9177 87.3252 29.0057C87.0452 29.1817 86.7212 29.3137 86.3532 29.4017C85.9932 29.4817 85.6572 29.5217 85.3452 29.5217Z" fill="white"/>
<path d="M26.5848 33.1181V29.6095C26.5848 28.714 27.2864 27.9879 28.1517 27.9879H31.3152C31.7308 27.9879 32.1294 28.1587 32.4233 28.4629C32.7171 28.767 32.8822 29.1795 32.8822 29.6095V33.1181C32.8796 33.4904 33.0207 33.8485 33.2742 34.1128C33.5277 34.377 33.8726 34.5256 34.2323 34.5256H36.3906C37.3986 34.5283 38.3662 34.1158 39.0799 33.3791C39.7936 32.6425 40.1947 31.6421 40.1947 30.5989V20.6036C40.1947 19.7609 39.8338 18.9616 39.2091 18.421L31.8671 12.3524C30.59 11.2884 28.7601 11.3227 27.5211 12.434L20.3466 18.421C19.6925 18.9457 19.3015 19.7474 19.2822 20.6036V30.5887C19.2822 32.763 20.9854 34.5256 23.0863 34.5256H25.1953C25.9425 34.5256 26.5498 33.9016 26.5553 33.1283L26.5848 33.1181Z" fill="white"/>
</svg>
