<svg width="22" height="26" viewBox="0 0 22 26" fill="none" xmlns="http://www.w3.org/2000/svg">
<path d="M12.2862 22.0842C12.8981 22.1029 13.4987 22.2576 14.0471 22.5375H14.0801C14.5383 22.9249 14.6161 23.6164 14.2562 24.1015C13.6008 25.0735 12.5522 25.6864 11.4058 25.7675C10.228 25.913 9.0419 25.5751 8.10423 24.8268C7.622 24.4841 7.30862 23.9421 7.24582 23.3422C7.24582 22.7075 7.8181 22.4129 8.34635 22.2882C8.96508 22.1531 9.59578 22.0848 10.2283 22.0842H12.2862ZM10.8996 0.302002C14.7074 0.302002 18.6363 3.15794 19.0435 7.29452C19.1095 8.1445 19.0435 9.02849 19.1095 9.8898C19.3256 11.0005 19.823 12.0327 20.5512 12.8817C21.004 13.5795 21.2663 14.3897 21.3107 15.2277V15.4884C21.3173 16.619 20.9264 17.714 20.21 18.571C19.3021 19.5771 18.0702 20.2094 16.7434 20.3502C12.8234 20.8715 8.85466 20.8715 4.93471 20.3502C3.59232 20.2201 2.34305 19.587 1.42403 18.571C0.730119 17.7058 0.366242 16.6099 0.400536 15.4884V15.2277C0.443484 14.3929 0.697677 13.5841 1.13789 12.8817C1.86938 12.0319 2.37378 11.0009 2.60159 9.8898C2.66762 9.02849 2.60159 8.15584 2.66762 7.29452C3.08583 3.15794 6.93767 0.302002 10.7895 0.302002H10.8996Z" fill="#A5A7AC"/>
</svg>
