<svg width="26" height="26" viewBox="0 0 26 26" fill="none" xmlns="http://www.w3.org/2000/svg">
<path opacity="0.5" d="M13.2007 11.6489C12.4503 11.6489 11.8476 12.2736 11.8476 13.0513C11.8476 13.829 12.4503 14.4537 13.2007 14.4537C13.9511 14.4537 14.5539 13.829 14.5539 13.0513C14.5539 12.2736 13.9511 11.6489 13.2007 11.6489ZM13.2007 0.302002C6.41033 0.302002 0.899292 6.01369 0.899292 13.0513C0.899292 20.0889 6.41033 25.8006 13.2007 25.8006C19.9911 25.8006 25.5021 20.0889 25.5021 13.0513C25.5021 6.01369 19.9911 0.302002 13.2007 0.302002ZM15.8947 15.8434L5.81986 20.7009L10.5067 10.2592L20.5816 5.40172L15.8947 15.8434Z" fill="#A5A7AC"/>
</svg>
