<svg width="21" height="26" viewBox="0 0 21 26" fill="none" xmlns="http://www.w3.org/2000/svg">
<path d="M11.8879 21.7822C12.4997 21.8009 13.1004 21.9556 13.6488 22.2355H13.6818C14.1399 22.6229 14.2178 23.3144 13.8579 23.7995C13.2025 24.7715 12.1539 25.3844 11.0075 25.4655C9.82969 25.611 8.64359 25.2731 7.70592 24.5248C7.22369 24.1821 6.9103 23.6401 6.84751 23.0402C6.84751 22.4055 7.41978 22.1109 7.94804 21.9862C8.56676 21.8511 9.19746 21.7828 9.82994 21.7822H11.8879ZM10.5013 0C14.3091 0 18.238 2.85594 18.6452 6.99252C18.7112 7.8425 18.6452 8.72648 18.7112 9.5878C18.9273 10.6985 19.4246 11.7307 20.1529 12.5797C20.6057 13.2775 20.8679 14.0877 20.9123 14.9257V15.1863C20.919 16.317 20.5281 17.412 19.8117 18.269C18.9038 19.2751 17.6718 19.9074 16.3451 20.0482C12.4251 20.5695 8.45635 20.5695 4.5364 20.0482C3.194 19.9181 1.94473 19.2849 1.02571 18.269C0.331803 17.4038 -0.0320737 16.3079 0.00222081 15.1863V14.9257C0.0451683 14.0909 0.299362 13.2821 0.739575 12.5797C1.47107 11.7299 1.97546 10.6989 2.20328 9.5878C2.26931 8.72648 2.20328 7.85384 2.26931 6.99252C2.68751 2.85594 6.53936 0 10.3912 0H10.5013Z" fill="white"/>
</svg>
