<svg width="31" height="32" viewBox="0 0 31 32" fill="none" xmlns="http://www.w3.org/2000/svg">
<path fill-rule="evenodd" clip-rule="evenodd" d="M0 15.9999C0 15.3426 0.532818 14.8098 1.19008 14.8098H21.8182C22.4754 14.8098 23.0083 15.3426 23.0083 15.9999C23.0083 16.6572 22.4754 17.19 21.8182 17.19H1.19008C0.532818 17.19 0 16.6572 0 15.9999Z" fill="#08738A"/>
<path fill-rule="evenodd" clip-rule="evenodd" d="M14.6296 7.22442C15.0943 6.75967 15.8478 6.75967 16.3126 7.22442L24.1343 15.0461C24.661 15.5728 24.661 16.4268 24.1343 16.9535L16.3126 24.7752C15.8478 25.24 15.0943 25.24 14.6296 24.7752C14.1648 24.3105 14.1648 23.5569 14.6296 23.0922L21.7219 15.9998L14.6296 8.90745C14.1648 8.4427 14.1648 7.68918 14.6296 7.22442Z" fill="#08738A"/>
<path fill-rule="evenodd" clip-rule="evenodd" d="M21.157 1.19008C21.157 0.532818 21.6898 0 22.347 0H29.5933C30.3382 0 30.9421 0.603864 30.9421 1.34876V30.6512C30.9421 31.3961 30.3382 32 29.5933 32H21.2892C20.6319 32 20.0991 31.4672 20.0991 30.8099C20.0991 30.1527 20.6319 29.6198 21.2892 29.6198H28.5619V2.38017H22.347C21.6898 2.38017 21.157 1.84735 21.157 1.19008Z" fill="#08738A"/>
</svg>
