<svg width="32" height="32" viewBox="0 0 32 32" fill="none" xmlns="http://www.w3.org/2000/svg">
<g clip-path="url(#clip0_458_927)">
<path d="M13.4476 4.29262C14.0968 1.61681 17.9032 1.61681 18.5524 4.29262C18.6498 4.6946 18.8407 5.06791 19.1097 5.38215C19.3786 5.69639 19.7179 5.94269 20.1 6.101C20.4822 6.25931 20.8962 6.32516 21.3086 6.29319C21.721 6.26121 22.12 6.13232 22.4731 5.917C24.8244 4.48462 27.5169 7.17567 26.0846 9.52843C25.8696 9.88143 25.7409 10.2802 25.709 10.6923C25.6771 11.1044 25.7429 11.5182 25.901 11.9001C26.0591 12.2819 26.3051 12.6211 26.619 12.89C26.9329 13.1589 27.3058 13.35 27.7074 13.4477C30.3832 14.0968 30.3832 17.9033 27.7074 18.5524C27.3054 18.6498 26.9321 18.8408 26.6179 19.1097C26.3037 19.3786 26.0574 19.718 25.8991 20.1001C25.7407 20.4822 25.6749 20.8963 25.7069 21.3087C25.7388 21.7211 25.8677 22.12 26.083 22.4732C27.5154 24.8244 24.8244 27.517 22.4716 26.0846C22.1186 25.8696 21.7199 25.7409 21.3078 25.709C20.8957 25.6771 20.4819 25.7429 20.1 25.901C19.7181 26.0592 19.3789 26.3052 19.11 26.6191C18.8411 26.9329 18.65 27.3059 18.5524 27.7075C17.9032 30.3833 14.0968 30.3833 13.4476 27.7075C13.3502 27.3055 13.1593 26.9322 12.8903 26.618C12.6214 26.3037 12.2821 26.0574 11.9 25.8991C11.5178 25.7408 11.1037 25.6749 10.6914 25.7069C10.279 25.7389 9.88 25.8678 9.52686 26.0831C7.17562 27.5155 4.48305 24.8244 5.91543 22.4717C6.13044 22.1187 6.25912 21.7199 6.29102 21.3078C6.32292 20.8957 6.25713 20.4819 6.099 20.1C5.94088 19.7182 5.69487 19.379 5.38099 19.1101C5.0671 18.8412 4.69419 18.6501 4.29257 18.5524C1.61676 17.9033 1.61676 14.0968 4.29257 13.4477C4.69455 13.3503 5.06785 13.1593 5.38209 12.8904C5.69633 12.6215 5.94263 12.2821 6.10095 11.9C6.25926 11.5179 6.3251 11.1038 6.29313 10.6914C6.26116 10.2791 6.13227 9.88006 5.91695 9.52691C4.48457 7.17567 7.17562 4.4831 9.52838 5.91548C11.0461 6.84196 13.027 6.02215 13.4476 4.29262Z" stroke="#08738A" stroke-width="3" stroke-linecap="round" stroke-linejoin="round"/>
<path d="M20.5714 16C20.5714 17.2124 20.0898 18.3752 19.2325 19.2325C18.3752 20.0898 17.2124 20.5714 16 20.5714C14.7876 20.5714 13.6248 20.0898 12.7675 19.2325C11.9102 18.3752 11.4286 17.2124 11.4286 16C11.4286 14.7876 11.9102 13.6248 12.7675 12.7675C13.6248 11.9102 14.7876 11.4286 16 11.4286C17.2124 11.4286 18.3752 11.9102 19.2325 12.7675C20.0898 13.6248 20.5714 14.7876 20.5714 16V16Z" stroke="#08738A" stroke-width="4" stroke-linecap="round" stroke-linejoin="round"/>
</g>
<defs>
<clipPath id="clip0_458_927">
<rect width="32" height="32" fill="white"/>
</clipPath>
</defs>
</svg>
